<svg width="32" height="32" viewBox="0 0 32 32" fill="none" xmlns="http://www.w3.org/2000/svg">
<path d="M7.76537 4.84266L16 13.0773L24.192 4.88533C24.373 4.69273 24.591 4.53865 24.8329 4.43234C25.0749 4.32603 25.3358 4.26968 25.6 4.26666C26.1658 4.26666 26.7085 4.49142 27.1085 4.8915C27.5086 5.29158 27.7334 5.8342 27.7334 6.4C27.7383 6.66155 27.6898 6.92136 27.5908 7.16348C27.4917 7.4056 27.3442 7.62492 27.1574 7.808L18.8587 16L27.1574 24.2987C27.509 24.6426 27.7152 25.1085 27.7334 25.6C27.7334 26.1658 27.5086 26.7084 27.1085 27.1085C26.7085 27.5086 26.1658 27.7333 25.6 27.7333C25.3282 27.7446 25.0569 27.6992 24.8035 27.6001C24.5501 27.5009 24.3201 27.3501 24.128 27.1573L16 18.9227L7.7867 27.136C7.60645 27.3222 7.39111 27.4708 7.15311 27.5733C6.91511 27.6759 6.65916 27.7302 6.40004 27.7333C5.83424 27.7333 5.29162 27.5086 4.89154 27.1085C4.49147 26.7084 4.2667 26.1658 4.2667 25.6C4.26173 25.3384 4.31026 25.0786 4.40931 24.8365C4.50836 24.5944 4.65584 24.3751 4.8427 24.192L13.1414 16L4.8427 7.70133C4.4911 7.35735 4.28492 6.89154 4.2667 6.4C4.2667 5.8342 4.49147 5.29158 4.89154 4.8915C5.29162 4.49142 5.83424 4.26666 6.40004 4.26666C6.91204 4.27306 7.4027 4.48 7.76537 4.84266Z" fill="black"/>
</svg>
