<svg width="44" height="44" viewBox="0 0 44 44" fill="none" xmlns="http://www.w3.org/2000/svg">
<path d="M36.6667 9.16667H30.855L27.5 5.5H16.5L13.145 9.16667H7.33332C5.31666 9.16667 3.66666 10.8167 3.66666 12.8333V34.8333C3.66666 35.8058 4.05296 36.7384 4.7406 37.4261C5.42823 38.1137 6.36086 38.5 7.33332 38.5H36.6667C38.7017 38.5 40.3333 36.8683 40.3333 34.8333V12.8333C40.3333 11.8609 39.947 10.9282 39.2594 10.2406C38.5717 9.55298 37.6391 9.16667 36.6667 9.16667ZM36.6667 34.8333H7.33332V12.8333H14.7583L18.1133 9.16667H25.8867L29.3333 12.8333H36.6667V34.8333ZM9.16666 22H13.0167C13.2565 20.8198 13.7267 19.6985 14.4004 18.7003C15.074 17.702 15.9379 16.8463 16.9425 16.1823C17.9471 15.5182 19.0729 15.0587 20.2553 14.8301C21.4377 14.6015 22.6535 14.6082 23.8333 14.85C25.2267 15.125 26.455 15.7483 27.5 16.5L24.86 19.1583C24.035 18.645 23.0633 18.3333 22 18.3333C19.69 18.3333 17.6 19.8 16.83 22H20.1667L14.6667 27.5L9.16666 22ZM31.0017 25.6667C29.9933 30.635 25.1533 33.825 20.1667 32.8167C18.8451 32.5213 17.5975 31.9599 16.5 31.1667L19.14 28.5083C19.9833 29.0217 20.955 29.3333 22 29.3333C24.3283 29.3333 26.4183 27.8667 27.1883 25.6667H23.8333L29.3333 20.1667L34.8333 25.6667H31.0017Z" fill="black"/>
</svg>
