<svg width="27" height="27" viewBox="0 0 27 27" fill="none" xmlns="http://www.w3.org/2000/svg">
<path fill-rule="evenodd" clip-rule="evenodd" d="M13.5 21.375C13.7984 21.375 14.0845 21.4935 14.2955 21.7045C14.5065 21.9155 14.625 22.2016 14.625 22.5V23.625C14.625 23.9234 14.5065 24.2095 14.2955 24.4205C14.0845 24.6315 13.7984 24.75 13.5 24.75C13.2016 24.75 12.9155 24.6315 12.7045 24.4205C12.4935 24.2095 12.375 23.9234 12.375 23.625V22.5C12.375 22.2016 12.4935 21.9155 12.7045 21.7045C12.9155 21.4935 13.2016 21.375 13.5 21.375ZM19.0687 19.0688C19.2624 18.8751 19.5202 18.7587 19.7936 18.7415C20.067 18.7243 20.3373 18.8075 20.5537 18.9754L20.6595 19.0688L21.4549 19.8641C21.6566 20.0666 21.7738 20.3382 21.7825 20.6239C21.7912 20.9096 21.6909 21.1879 21.5018 21.4023C21.3128 21.6167 21.0492 21.7511 20.7647 21.7782C20.4802 21.8053 20.196 21.7231 19.9699 21.5482L19.8641 21.4549L19.0687 20.6595C18.8578 20.4485 18.7393 20.1624 18.7393 19.8641C18.7393 19.5658 18.8578 19.2797 19.0687 19.0688ZM7.93123 19.0688C8.14214 19.2797 8.26062 19.5658 8.26062 19.8641C8.26062 20.1624 8.14214 20.4485 7.93123 20.6595L7.13586 21.4549C6.92368 21.6598 6.6395 21.7732 6.34453 21.7706C6.04956 21.7681 5.7674 21.6498 5.55881 21.4412C5.35023 21.2326 5.23191 20.9504 5.22935 20.6555C5.22679 20.3605 5.34018 20.0763 5.54511 19.8641L6.34048 19.0688C6.55145 18.8578 6.83755 18.7394 7.13586 18.7394C7.43417 18.7394 7.72026 18.8578 7.93123 19.0688ZM13.5 2.25C13.7755 2.25004 14.0415 2.3512 14.2474 2.5343C14.4533 2.71741 14.5849 2.96972 14.6171 3.24337L14.625 3.375V4.6125L23.8219 13.8105C24.507 14.4945 24.0727 15.6443 23.1469 15.7433L23.0186 15.75H19.0125C18.7564 16.9993 18.0836 18.1246 17.1042 18.9415C16.1249 19.7584 14.8971 20.2183 13.6221 20.2461C12.3471 20.2738 11.1005 19.8676 10.0866 19.0941C9.07269 18.3205 8.35159 17.2255 8.04148 15.9885L7.98748 15.75H3.98248C3.01386 15.75 2.50873 14.6306 3.09261 13.9061L3.17923 13.8105L12.375 4.6125V3.375C12.375 3.07663 12.4935 2.79048 12.7045 2.5795C12.9155 2.36853 13.2016 2.25 13.5 2.25ZM16.6837 15.75H10.3162C10.543 16.3916 10.9584 16.9496 11.5079 17.351C12.0574 17.7524 12.7154 17.9784 13.3955 17.9993C14.0757 18.0202 14.7463 17.8351 15.3194 17.4683C15.8925 17.1014 16.3414 16.5699 16.6072 15.9435L16.6837 15.75Z" fill="black"/>
</svg>
