<svg width="24" height="24" viewBox="0 0 24 24" fill="none" xmlns="http://www.w3.org/2000/svg">
<path d="M7 13H14C14.2833 13 14.521 12.904 14.713 12.712C14.905 12.52 15.0007 12.2827 15 12C15 11.7167 14.904 11.479 14.712 11.287C14.52 11.095 14.2827 10.9993 14 11H7C6.71667 11 6.479 11.096 6.287 11.288C6.095 11.48 5.99934 11.7173 6 12C6 12.2833 6.096 12.521 6.288 12.713C6.48 12.905 6.71734 13.0007 7 13ZM7 10H14C14.2833 10 14.521 9.904 14.713 9.712C14.905 9.52 15.0007 9.28267 15 9C15 8.71667 14.904 8.479 14.712 8.287C14.52 8.095 14.2827 7.99934 14 8H7C6.71667 8 6.479 8.096 6.287 8.288C6.095 8.48 5.99934 8.71734 6 9C6 9.28334 6.096 9.521 6.288 9.713C6.48 9.905 6.71734 10.0007 7 10ZM4 20C3.45 20 2.979 19.804 2.587 19.412C2.195 19.02 1.99934 18.5493 2 18V6C2 5.45 2.196 4.979 2.588 4.587C2.98 4.195 3.45067 3.99934 4 4H20C20.55 4 21.021 4.196 21.413 4.588C21.805 4.98 22.0007 5.45067 22 6V18C22 18.55 21.804 19.021 21.412 19.413C21.02 19.805 20.5493 20.0007 20 20H4Z" fill="black"/>
</svg>
