<svg width="25" height="25" viewBox="0 0 25 25" fill="none" xmlns="http://www.w3.org/2000/svg">
<path d="M12.5 25C12.1986 25 11.9096 24.8803 11.6965 24.6672C11.4834 24.4541 11.3636 24.165 11.3636 23.8636V20.4545H6.81818C6.21542 20.4545 5.63734 20.2151 5.21112 19.7889C4.7849 19.3627 4.54545 18.7846 4.54545 18.1818V6.81818C4.54545 6.21542 4.7849 5.63734 5.21112 5.21112C5.63734 4.7849 6.21542 4.54545 6.81818 4.54545H22.7273C23.33 4.54545 23.9081 4.7849 24.3343 5.21112C24.7606 5.63734 25 6.21542 25 6.81818V18.1818C25 18.7846 24.7606 19.3627 24.3343 19.7889C23.9081 20.2151 23.33 20.4545 22.7273 20.4545H18.0682L13.8636 24.6705C13.6364 24.875 13.3636 25 13.0682 25H12.5ZM13.6364 18.1818V21.6818L17.1364 18.1818H22.7273V6.81818H6.81818V18.1818H13.6364ZM2.27273 15.9091H0V2.27273C0 1.66996 0.239447 1.09189 0.665666 0.665666C1.09189 0.239447 1.66996 0 2.27273 0H20.4545V2.27273H2.27273V15.9091ZM9.09091 9.09091H20.4545V11.3636H9.09091V9.09091ZM9.09091 13.6364H18.1818V15.9091H9.09091V13.6364Z" fill="black"/>
</svg>
