<svg width="22" height="16" viewBox="0 0 22 16" fill="none" xmlns="http://www.w3.org/2000/svg">
<path opacity="0.5" d="M3.85 12.0999L3.85 3.2999C3.85 2.42469 3.50232 1.58532 2.88345 0.966449C2.26458 0.347579 1.42521 -9.82908e-05 0.549999 -9.82525e-05C0.40413 -9.82461e-05 0.264236 0.057848 0.161091 0.160993C0.0579457 0.264138 -6.5549e-07 0.404033 -6.49114e-07 0.549902L-2.40413e-08 14.8499C-1.76651e-08 14.9958 0.0579464 15.1357 0.161091 15.2388C0.264236 15.342 0.404131 15.3999 0.55 15.3999C1.42521 15.3999 2.26458 15.0522 2.88345 14.4334C3.50232 13.8145 3.85 12.9751 3.85 12.0999ZM18.15 3.2999L18.15 12.0999C18.15 12.9751 18.4977 13.8145 19.1165 14.4334C19.7354 15.0522 20.5748 15.3999 21.45 15.3999C21.5959 15.3999 21.7358 15.342 21.8389 15.2388C21.9421 15.1357 22 14.9958 22 14.8499L22 0.549901C22 0.404032 21.9421 0.264137 21.8389 0.160992C21.7358 0.057847 21.5959 -9.91724e-05 21.45 -9.91661e-05C20.5748 -9.91278e-05 19.7354 0.347578 19.1165 0.966448C18.4977 1.58532 18.15 2.42469 18.15 3.2999Z" fill="black" fill-opacity="0.3"/>
<path d="M10.45 15.3999C8.37539 15.3999 7.33919 15.3999 6.69459 14.7553C6.04999 14.1107 6.04999 13.0745 6.04999 10.9999L6.04999 4.3999C6.04999 2.3253 6.04999 1.2891 6.69459 0.644503C7.33919 -9.73311e-05 8.37539 -9.83301e-05 10.45 -9.84208e-05L11.55 -9.84689e-05C13.6246 -9.85596e-05 14.6608 -9.76512e-05 15.3054 0.644502C15.95 1.2891 15.95 2.3253 15.95 4.3999L15.95 10.9999C15.95 13.0745 15.95 14.1107 15.3054 14.7553C14.6608 15.3999 13.6246 15.3999 11.55 15.3999L10.45 15.3999Z" fill="black" fill-opacity="0.3"/>
</svg>
