<svg width="20" height="32" viewBox="0 0 20 32" fill="none" xmlns="http://www.w3.org/2000/svg">
<g clip-path="url(#clip0_478_1301)">
<path d="M19.7543 8.42308C20.0221 8.67949 20.0742 8.96154 19.9105 9.26923L7.85695 31.5192C7.6635 31.8397 7.351 32 6.91945 32C6.85992 32 6.75576 31.9872 6.60695 31.9615C6.35397 31.8974 6.16424 31.7756 6.03775 31.5962C5.91126 31.4167 5.87778 31.2244 5.9373 31.0192L10.3346 15.4808L1.27213 17.4231C1.2126 17.4359 1.12332 17.4423 1.00427 17.4423C0.736412 17.4423 0.505757 17.3718 0.312305 17.2308C0.0444476 17.0385 -0.0522786 16.7885 0.0221262 16.4808L4.50873 0.615385C4.56826 0.435897 4.6873 0.288462 4.86588 0.173077C5.04445 0.0576923 5.25278 0 5.49088 0H12.8123C13.095 0 13.3331 0.0801282 13.5266 0.240385C13.72 0.400641 13.8168 0.589744 13.8168 0.807692C13.8168 0.910256 13.7796 1.02564 13.7052 1.15385L9.8882 10.0577L18.7275 8.17308C18.8465 8.14744 18.9358 8.13462 18.9953 8.13462C19.2781 8.13462 19.5311 8.23077 19.7543 8.42308Z" fill="black"/>
</g>
<defs>
<clipPath id="clip0_478_1301">
<rect width="20" height="32" fill="white"/>
</clipPath>
</defs>
</svg>
