<svg width="24" height="24" viewBox="0 0 24 24" fill="none" xmlns="http://www.w3.org/2000/svg">
<path d="M18 8.00003C18 6.40873 17.3679 4.88261 16.2426 3.75739C15.1174 2.63217 13.5913 2.00003 12 2.00003C10.4087 2.00003 8.88258 2.63217 7.75736 3.75739C6.63214 4.88261 6 6.40873 6 8.00003C6 11.8432 5.09572 14.1792 4.2801 15.5046C3.79266 16.2967 3.54894 16.6927 3.63481 16.8464C3.72067 17 4.141 17 4.98167 17H19.0183C19.859 17 20.2793 17 20.3652 16.8464C20.4511 16.6927 20.2073 16.2967 19.7199 15.5046C18.9043 14.1792 18 11.8432 18 8.00003Z" stroke="#2E2E2E" stroke-width="2" stroke-linecap="round" stroke-linejoin="round"/>
<path d="M15 21C14.6951 21.4562 14.2575 21.8349 13.731 22.0982C13.2045 22.3614 12.6076 22.5 12 22.5C11.3924 22.5 10.7955 22.3614 10.269 22.0982C9.74247 21.8349 9.30487 21.4562 9 21" stroke="#2E2E2E" stroke-width="2" stroke-linecap="round" stroke-linejoin="round"/>
</svg>
