<svg width="40" height="40" viewBox="0 0 40 40" fill="none" xmlns="http://www.w3.org/2000/svg">
<path d="M20 3.33325C10.795 3.33325 3.33337 10.7949 3.33337 19.9999C3.33337 29.2049 10.795 36.6666 20 36.6666C29.205 36.6666 36.6667 29.2049 36.6667 19.9999C36.6667 10.7949 29.205 3.33325 20 3.33325Z" stroke="black" stroke-width="1.5" stroke-linecap="round" stroke-linejoin="round"/>
<path d="M7.11841 30.5767C7.11841 30.5767 10.8334 25.8333 20.0001 25.8333C29.1667 25.8333 32.8834 30.5767 32.8834 30.5767M20.0001 20C21.3262 20 22.5979 19.4732 23.5356 18.5355C24.4733 17.5979 25.0001 16.3261 25.0001 15C25.0001 13.6739 24.4733 12.4021 23.5356 11.4645C22.5979 10.5268 21.3262 10 20.0001 10C18.674 10 17.4022 10.5268 16.4645 11.4645C15.5269 12.4021 15.0001 13.6739 15.0001 15C15.0001 16.3261 15.5269 17.5979 16.4645 18.5355C17.4022 19.4732 18.674 20 20.0001 20V20Z" stroke="black" stroke-width="1.5" stroke-linecap="round" stroke-linejoin="round"/>
</svg>
