<svg width="40" height="40" viewBox="0 0 40 40" fill="none" xmlns="http://www.w3.org/2000/svg">
<g clip-path="url(#clip0_212_319)">
<path d="M37.5 30C37.5 30.663 37.2366 31.2989 36.7678 31.7678C36.2989 32.2366 35.663 32.5 35 32.5H5C4.33696 32.5 3.70107 32.2366 3.23223 31.7678C2.76339 31.2989 2.5 30.663 2.5 30V15C2.5 14.337 2.76339 13.7011 3.23223 13.2322C3.70107 12.7634 4.33696 12.5 5 12.5H7.93C9.91809 12.4989 11.8244 11.7085 13.23 10.3025L15.305 8.2325C15.7725 7.76485 16.4062 7.50147 17.0675 7.5H22.9275C23.5905 7.50014 24.2263 7.76363 24.695 8.2325L26.765 10.3025C27.4616 10.9993 28.2886 11.552 29.1989 11.9291C30.1091 12.3061 31.0847 12.5001 32.07 12.5H35C35.663 12.5 36.2989 12.7634 36.7678 13.2322C37.2366 13.7011 37.5 14.337 37.5 15V30ZM5 10C3.67392 10 2.40215 10.5268 1.46447 11.4645C0.526784 12.4021 0 13.6739 0 15L0 30C0 31.3261 0.526784 32.5979 1.46447 33.5355C2.40215 34.4732 3.67392 35 5 35H35C36.3261 35 37.5979 34.4732 38.5355 33.5355C39.4732 32.5979 40 31.3261 40 30V15C40 13.6739 39.4732 12.4021 38.5355 11.4645C37.5979 10.5268 36.3261 10 35 10H32.07C30.744 9.99972 29.4725 9.47275 28.535 8.535L26.465 6.465C25.5275 5.52725 24.256 5.00028 22.93 5H17.07C15.744 5.00028 14.4725 5.52725 13.535 6.465L11.465 8.535C10.5275 9.47275 9.25597 9.99972 7.93 10H5Z" fill="black"/>
<path d="M20 27.5C18.3424 27.5 16.7527 26.8415 15.5806 25.6694C14.4085 24.4973 13.75 22.9076 13.75 21.25C13.75 19.5924 14.4085 18.0027 15.5806 16.8306C16.7527 15.6585 18.3424 15 20 15C21.6576 15 23.2473 15.6585 24.4194 16.8306C25.5915 18.0027 26.25 19.5924 26.25 21.25C26.25 22.9076 25.5915 24.4973 24.4194 25.6694C23.2473 26.8415 21.6576 27.5 20 27.5ZM20 30C22.3206 30 24.5462 29.0781 26.1872 27.4372C27.8281 25.7962 28.75 23.5706 28.75 21.25C28.75 18.9294 27.8281 16.7038 26.1872 15.0628C24.5462 13.4219 22.3206 12.5 20 12.5C17.6794 12.5 15.4538 13.4219 13.8128 15.0628C12.1719 16.7038 11.25 18.9294 11.25 21.25C11.25 23.5706 12.1719 25.7962 13.8128 27.4372C15.4538 29.0781 17.6794 30 20 30ZM7.5 16.25C7.5 16.5815 7.3683 16.8995 7.13388 17.1339C6.89946 17.3683 6.58152 17.5 6.25 17.5C5.91848 17.5 5.60054 17.3683 5.36612 17.1339C5.1317 16.8995 5 16.5815 5 16.25C5 15.9185 5.1317 15.6005 5.36612 15.3661C5.60054 15.1317 5.91848 15 6.25 15C6.58152 15 6.89946 15.1317 7.13388 15.3661C7.3683 15.6005 7.5 15.9185 7.5 16.25Z" fill="black"/>
</g>
<defs>
<clipPath id="clip0_212_319">
<rect width="40" height="40" fill="white"/>
</clipPath>
</defs>
</svg>
