<svg width="19" height="19" viewBox="0 0 19 19" fill="none" xmlns="http://www.w3.org/2000/svg">
<path d="M2.11111 19C1.53056 19 1.03339 18.7931 0.619613 18.3793C0.205835 17.9656 -0.000701911 17.4687 1.79212e-06 16.8889V2.11111C1.79212e-06 1.53056 0.206891 1.03339 0.620668 0.619613C1.03445 0.205835 1.53126 -0.000701911 2.11111 1.79212e-06H16.8889C17.4694 1.79212e-06 17.9666 0.206891 18.3804 0.620668C18.7942 1.03445 19.0007 1.53126 19 2.11111V16.8889C19 17.4694 18.7931 17.9666 18.3793 18.3804C17.9656 18.7942 17.4687 19.0007 16.8889 19H2.11111ZM3.16667 14.7778H15.8333L11.875 9.5L8.70833 13.7222L6.33333 10.5556L3.16667 14.7778Z" fill="black"/>
</svg>
