<svg width="25" height="26" viewBox="0 0 25 26" fill="none" xmlns="http://www.w3.org/2000/svg">
<path d="M3.16255 9.99457C3.11847 9.85829 3.10127 9.71423 3.11197 9.57094C3.12267 9.42765 3.16105 9.28805 3.22484 9.1604C3.28863 9.03276 3.37652 8.91967 3.48331 8.82785C3.5901 8.73603 3.71361 8.66734 3.84651 8.62586C3.97942 8.58438 4.11902 8.57095 4.25703 8.58636C4.39505 8.60178 4.52866 8.64573 4.64997 8.71561C4.77127 8.78549 4.87778 8.87987 4.96319 8.99316C5.04861 9.10645 5.11118 9.23635 5.1472 9.37514C7.3102 16.8748 17.5715 16.8759 19.7366 9.37944C19.7754 9.24424 19.8395 9.11828 19.9253 9.00875C20.0112 8.89922 20.117 8.80826 20.2368 8.74107C20.3566 8.67388 20.4879 8.63178 20.6234 8.61716C20.7589 8.60254 20.8959 8.6157 21.0265 8.65588C21.1571 8.69605 21.2787 8.76247 21.3845 8.85133C21.4903 8.94019 21.5782 9.04975 21.6431 9.17376C21.708 9.29777 21.7486 9.4338 21.7628 9.57408C21.7769 9.71436 21.7642 9.85615 21.7254 9.99135C21.3481 11.3345 20.7082 12.5831 19.8454 13.6596L21.1675 15.0294C21.3564 15.2319 21.4609 15.5031 21.4585 15.7845C21.4562 16.066 21.3471 16.3353 21.1549 16.5343C20.9626 16.7334 20.7025 16.8463 20.4307 16.8487C20.1588 16.8511 19.8969 16.7429 19.7013 16.5474L18.3419 15.14C17.6082 15.7127 16.7978 16.1717 15.9363 16.5023L16.3065 17.9355C16.3459 18.0729 16.3584 18.2172 16.3432 18.3597C16.3279 18.5023 16.2852 18.6402 16.2176 18.7654C16.15 18.8906 16.0589 19.0005 15.9496 19.0886C15.8403 19.1767 15.715 19.2412 15.5812 19.2784C15.4474 19.3155 15.3078 19.3246 15.1706 19.3049C15.0334 19.2853 14.9013 19.2374 14.7823 19.164C14.6632 19.0907 14.5596 18.9934 14.4775 18.8779C14.3954 18.7624 14.3364 18.631 14.3042 18.4916L13.9267 17.0348C12.9448 17.1851 11.941 17.1851 10.9591 17.0348L10.5817 18.4916C10.5494 18.631 10.4905 18.7624 10.4083 18.8779C10.3262 18.9934 10.2226 19.0907 10.1035 19.164C9.9845 19.2374 9.85247 19.2853 9.71525 19.3049C9.57803 19.3246 9.4384 19.3155 9.30461 19.2784C9.17081 19.2412 9.04557 19.1767 8.93626 19.0886C8.82696 19.0005 8.73581 18.8906 8.66821 18.7654C8.60061 18.6402 8.55792 18.5023 8.54266 18.3597C8.5274 18.2172 8.53989 18.0729 8.57938 17.9355L8.94956 16.5023C8.08794 16.1713 7.27753 15.712 6.54392 15.1389L5.18556 16.5474C4.99113 16.749 4.72732 16.8623 4.45216 16.8625C4.177 16.8627 3.91304 16.7498 3.71833 16.5485C3.52363 16.3472 3.41413 16.074 3.41394 15.7892C3.41374 15.5043 3.52286 15.231 3.71729 15.0294L5.03936 13.6607C4.22642 12.6558 3.57731 11.4342 3.16047 9.99564L3.16255 9.99457Z" fill="black"/>
</svg>
