<svg width="18" height="20" viewBox="0 0 18 20" fill="none" xmlns="http://www.w3.org/2000/svg">
<path d="M8.825 12H12C12.2833 12 12.521 11.904 12.713 11.712C12.905 11.52 13.0007 11.2827 13 11C13 10.7167 12.904 10.479 12.712 10.287C12.52 10.095 12.2827 9.99933 12 10H8.825L9.725 9.1C9.90834 8.91667 10 8.68733 10 8.412C10 8.13667 9.9 7.89933 9.7 7.7C9.51667 7.51667 9.28334 7.425 9 7.425C8.71667 7.425 8.48334 7.51667 8.3 7.7L5.7 10.3C5.5 10.5 5.4 10.7333 5.4 11C5.4 11.2667 5.5 11.5 5.7 11.7L8.3 14.3C8.48334 14.4833 8.71267 14.579 8.988 14.587C9.26334 14.595 9.50067 14.4993 9.7 14.3C9.88334 14.1167 9.975 13.8833 9.975 13.6C9.975 13.3167 9.88334 13.0833 9.7 12.9L8.825 12ZM2 20C1.45 20 0.979002 19.804 0.587002 19.412C0.195002 19.02 -0.000664969 18.5493 1.69779e-06 18V4C1.69779e-06 3.45 0.196002 2.979 0.588002 2.587C0.980002 2.195 1.45067 1.99933 2 2H6.2C6.41667 1.4 6.77934 0.916667 7.288 0.55C7.79667 0.183333 8.36734 0 9 0C9.63334 0 10.2043 0.183333 10.713 0.55C11.2217 0.916667 11.584 1.4 11.8 2H16C16.55 2 17.021 2.196 17.413 2.588C17.805 2.98 18.0007 3.45067 18 4V18C18 18.55 17.804 19.021 17.412 19.413C17.02 19.805 16.5493 20.0007 16 20H2ZM9 3.25C9.21667 3.25 9.39567 3.179 9.537 3.037C9.67833 2.895 9.74934 2.716 9.75 2.5C9.75 2.28333 9.679 2.10433 9.537 1.963C9.395 1.82167 9.216 1.75067 9 1.75C8.78334 1.75 8.60434 1.821 8.463 1.963C8.32167 2.105 8.25067 2.284 8.25 2.5C8.25 2.71667 8.321 2.89567 8.463 3.037C8.605 3.17833 8.784 3.24933 9 3.25Z" fill="black"/>
</svg>
