<svg width="44" height="44" viewBox="0 0 44 44" fill="none" xmlns="http://www.w3.org/2000/svg">
<path d="M33 14.6667C33 15.6391 32.6137 16.5718 31.926 17.2594C31.2384 17.947 30.3058 18.3333 29.3333 18.3333C28.3609 18.3333 27.4282 17.947 26.7406 17.2594C26.053 16.5718 25.6667 15.6391 25.6667 14.6667C25.6667 13.6942 26.053 12.7616 26.7406 12.0739C27.4282 11.3863 28.3609 11 29.3333 11C30.3058 11 31.2384 11.3863 31.926 12.0739C32.6137 12.7616 33 13.6942 33 14.6667Z" fill="black"/>
<path fill-rule="evenodd" clip-rule="evenodd" d="M21.8955 2.29175H22.1045C26.3377 2.29175 29.6542 2.29175 32.2428 2.64008C34.8902 2.99575 36.9802 3.74008 38.621 5.37908C40.2618 7.01991 41.0043 9.10991 41.36 11.7591C41.7083 14.3459 41.7083 17.6624 41.7083 21.8956V22.0569C41.7083 25.5567 41.7083 28.4204 41.5177 30.7524C41.327 33.0991 40.9365 35.0553 40.0602 36.6833C39.6752 37.4001 39.1985 38.0436 38.621 38.6211C36.9802 40.2619 34.8902 41.0044 32.241 41.3601C29.6542 41.7084 26.3377 41.7084 22.1045 41.7084H21.8955C17.6623 41.7084 14.3458 41.7084 11.7572 41.3601C9.10982 41.0044 7.01982 40.2601 5.37899 38.6211C3.92516 37.1672 3.17349 35.3577 2.77566 33.1101C2.38149 30.9046 2.30999 28.1601 2.29532 24.7537C2.29166 23.8866 2.29166 22.9699 2.29166 22.0019V21.8956C2.29166 17.6624 2.29166 14.3459 2.63999 11.7572C2.99566 9.10992 3.73999 7.01991 5.37899 5.37908C7.01982 3.73825 9.10982 2.99575 11.759 2.64008C14.3458 2.29175 17.6623 2.29175 21.8955 2.29175ZM12.1238 5.36441C9.78082 5.67975 8.36732 6.28108 7.32416 7.32425C6.27916 8.36925 5.67966 9.78091 5.36432 12.1257C5.04532 14.5091 5.04166 17.6404 5.04166 22.0001V23.5474L6.87682 21.9396C7.68202 21.2352 8.72485 20.8632 9.79408 20.8989C10.8633 20.9347 11.879 21.3755 12.6353 22.1321L20.5003 29.9971C21.1107 30.6073 21.9167 30.9826 22.7765 31.0571C23.6363 31.1315 24.4949 30.9003 25.201 30.4041L25.7473 30.0191C26.7661 29.3032 27.9976 28.9542 29.2404 29.0292C30.4833 29.1041 31.664 29.5985 32.5893 30.4316L37.7777 35.1011C38.302 34.0047 38.6118 32.5637 38.7768 30.5306C38.9565 28.3214 38.9583 25.5677 38.9583 22.0001C38.9583 17.6404 38.9547 14.5091 38.6357 12.1257C38.3203 9.78091 37.719 8.36741 36.6758 7.32241C35.6308 6.27925 34.2192 5.67975 31.8743 5.36441C29.491 5.04541 26.3597 5.04175 22 5.04175C17.6403 5.04175 14.5072 5.04541 12.1238 5.36441Z" fill="black"/>
</svg>
