<svg width="137" height="77" viewBox="0 0 137 77" fill="none" xmlns="http://www.w3.org/2000/svg">
<path d="M16.3431 54.928C16.4711 53.3493 17.2605 52.0907 18.7111 51.152C20.1618 50.2133 21.5911 49.744 22.9991 49.744C24.4071 49.744 25.4951 50.0213 26.2631 50.576C27.0311 51.088 27.4151 51.792 27.4151 52.688C27.4151 54.352 26.6685 55.6747 25.1751 56.656C23.6818 57.6373 22.2311 58.128 20.8231 58.128C17.9218 58.128 16.4285 57.0613 16.3431 54.928ZM25.4951 41.04L25.5591 43.408C25.5591 44.7307 24.4285 45.392 22.1671 45.392C21.7831 45.392 21.3778 45.3707 20.9511 45.328C20.5671 45.2853 20.0551 45.0507 19.4151 44.624C18.7751 44.1547 18.4551 43.5147 18.4551 42.704V42.384C18.6258 40.1653 18.7111 37.7333 18.7111 35.088C18.7111 32.4 18.5618 29.8187 18.2631 27.344C18.0071 24.8267 17.7511 23.056 17.4951 22.032L17.1111 20.432C16.8551 19.7067 16.7271 19.0667 16.7271 18.512C16.7271 16.848 17.6445 15.5467 19.4791 14.608C21.3565 13.6267 23.2551 13.136 25.1751 13.136C28.2471 13.136 29.7831 14.0533 29.7831 15.888L29.3991 17.488C26.7965 23.8453 25.4951 31.696 25.4951 41.04Z" fill="#3DCC8E"/>
<path d="M40.2931 44.8C39.8771 45.024 39.5411 45.344 39.2851 45.76C39.0611 46.144 38.9171 46.624 38.8531 47.2C38.9171 50.912 39.0291 53.152 39.1891 53.92C39.3491 54.656 39.4291 55.152 39.4291 55.408C39.4291 56.56 38.6291 57.52 37.0291 58.288C35.4611 59.056 34.0691 59.44 32.8531 59.44C31.6691 59.44 31.0771 58.864 31.0771 57.712L31.1731 56.944C31.9411 51.248 32.3251 45.344 32.3251 39.232L32.0851 31.456C32.0851 30.624 31.8131 29.808 31.2691 29.008C30.7571 28.208 30.5011 27.52 30.5011 26.944C30.5011 25.92 31.1731 25.008 32.5171 24.208C33.8931 23.408 35.3651 22.848 36.9331 22.528C38.5331 22.176 39.7651 22 40.6291 22C41.5251 22 42.2771 22.032 42.8851 22.096C43.4931 22.16 44.3571 22.352 45.4771 22.672C46.6291 22.992 47.6371 23.424 48.5011 23.968C49.3651 24.512 50.1171 25.36 50.7571 26.512C51.4291 27.664 51.7651 29.152 51.7651 30.976C51.7651 32.768 51.3651 34.544 50.5651 36.304C49.7971 38.032 48.8531 39.408 47.7331 40.432C45.4611 42.48 43.3811 43.808 41.4931 44.416L40.2931 44.8ZM42.8371 35.968C43.4131 34.528 43.7491 33.424 43.8451 32.656C43.9411 31.856 43.9891 31.168 43.9891 30.592C43.9891 29.984 43.9091 29.408 43.7491 28.864C43.6211 28.288 43.4611 27.872 43.2691 27.616C43.0771 27.328 42.8531 27.104 42.5971 26.944C42.2451 26.72 41.9091 26.608 41.5891 26.608C40.8531 26.608 40.2611 26.96 39.8131 27.664C39.3651 28.368 39.1411 29.104 39.1411 29.872C38.8851 31.504 38.7571 33.296 38.7571 35.248C38.7571 37.2 38.7731 38.336 38.8051 38.656C38.8051 39.2 39.0291 39.472 39.4771 39.472C39.7651 39.472 40.1011 39.344 40.4851 39.088C41.4771 38.448 42.2611 37.408 42.8371 35.968ZM55.5046 50.224C55.5046 51.568 55.9846 52.24 56.9446 52.24C57.9046 52.24 58.6726 51.744 59.2486 50.752C59.8566 49.76 60.1606 48.88 60.1606 48.112C60.1606 46.672 59.6486 45.952 58.6246 45.952C57.6966 45.952 56.9446 46.416 56.3686 47.344C55.7926 48.272 55.5046 49.232 55.5046 50.224ZM65.8246 42.592L65.6806 49.264C65.6806 51.92 66.0166 53.456 66.6886 53.872C67.1046 54.192 67.3126 54.608 67.3126 55.12C67.3126 56.048 66.6886 56.912 65.4406 57.712C64.2246 58.512 62.9766 58.912 61.6966 58.912C61.0566 58.912 60.5766 58.768 60.2566 58.48C59.9366 58.224 59.7766 57.936 59.7766 57.616C59.7766 56.752 59.6646 56.32 59.4406 56.32C59.4086 56.32 59.2006 56.512 58.8166 56.896C58.4646 57.248 57.9206 57.616 57.1846 58C56.4806 58.352 55.5686 58.528 54.4486 58.528C53.3606 58.528 52.3846 58.256 51.5206 57.712C50.6886 57.168 50.1126 56.464 49.7926 55.6C49.2166 54.16 48.9286 52.816 48.9286 51.568C48.9286 50.32 49.1206 49.152 49.5046 48.064C49.8886 46.976 50.3686 46.096 50.9446 45.424C51.5206 44.752 52.1926 44.16 52.9606 43.648C53.7286 43.104 54.4486 42.72 55.1206 42.496C55.7926 42.24 56.4806 42.032 57.1846 41.872C58.1766 41.68 58.8646 41.584 59.2486 41.584L59.7286 40.96C59.6966 39.872 58.8966 39.328 57.3286 39.328C55.7926 39.328 54.5286 39.632 53.5366 40.24C53.1526 40.496 52.7686 40.624 52.3846 40.624C51.6166 40.624 51.2326 40.048 51.2326 38.896C51.2326 35.92 53.6006 34.432 58.3366 34.432C61.9846 34.432 64.2726 35.648 65.2006 38.08C65.6166 39.168 65.8246 40.672 65.8246 42.592ZM75.6009 45.76L75.5049 49.36C75.5049 50.32 75.5529 51.616 75.6489 53.248L75.7929 55.696C75.7929 56.752 75.4249 57.536 74.6889 58.048C73.5049 58.88 71.9849 59.296 70.1289 59.296C68.8169 59.296 68.1609 58.736 68.1609 57.616L68.2569 56.848C69.0569 53.104 69.4569 49.936 69.4569 47.344C69.4889 44.752 69.4089 43.024 69.2169 42.16C69.0569 41.296 68.7049 40.576 68.1609 40C67.6169 39.392 67.3449 38.896 67.3449 38.512C67.3449 37.456 68.1769 36.448 69.8409 35.488C71.5049 34.528 72.8169 34.048 73.7769 34.048C74.7689 34.048 75.3289 34.576 75.4569 35.632C75.5209 37.04 75.6969 37.744 75.9849 37.744C76.0809 37.744 76.1929 37.696 76.3209 37.6C76.4489 37.376 76.6409 37.104 76.8969 36.784C77.1849 36.464 77.7769 36.048 78.6729 35.536C79.6009 34.992 80.6569 34.72 81.8409 34.72C83.0249 34.72 84.0009 35.2 84.7689 36.16C85.5369 37.12 86.0009 38.256 86.1609 39.568C86.2249 40.112 86.2569 41.008 86.2569 42.256L86.0649 49.36C86.0649 51.536 86.5609 53.024 87.5529 53.824C88.1289 54.112 88.4169 54.48 88.4169 54.928C88.4169 55.344 88.2889 55.728 88.0329 56.08C86.8169 57.808 84.8329 58.672 82.0809 58.672C80.7689 58.64 80.0009 58.112 79.7769 57.088C79.6809 56.64 79.6329 55.952 79.6329 55.024C79.6329 54.064 79.7129 52.576 79.8729 50.56C80.0649 48.512 80.1609 47.008 80.1609 46.048C80.1609 43.2 79.5209 41.776 78.2409 41.776C77.4089 41.776 76.7529 42.224 76.2729 43.12C75.8249 44.016 75.6009 44.896 75.6009 45.76ZM90.5975 42.304C90.5975 41.792 90.4695 41.312 90.2135 40.864C89.9895 40.416 89.6855 40.016 89.3015 39.664C88.9175 39.312 88.7255 38.928 88.7255 38.512C88.7255 37.424 89.5575 36.464 91.2215 35.632C92.8855 34.768 94.2775 34.336 95.3975 34.336C96.5495 34.336 97.1415 34.912 97.1735 36.064C97.1735 36.864 97.0935 38.304 96.9335 40.384C96.8055 42.432 96.7415 44.336 96.7415 46.096C96.7415 50.352 97.1255 53.024 97.8935 54.112C98.3415 54.368 98.5655 54.768 98.5655 55.312C98.5655 56.368 97.9735 57.2 96.7895 57.808C95.6375 58.416 94.3255 58.72 92.8535 58.72C90.9015 58.72 89.9255 58.064 89.9255 56.752C89.9255 56.688 89.9735 56.32 90.0695 55.648C90.5175 53.088 90.7415 50.224 90.7415 47.056L90.5975 42.304ZM97.6535 27.04C97.6535 28.224 97.0775 29.184 95.9255 29.92C94.8055 30.624 93.7175 30.976 92.6615 30.976C91.6055 30.976 90.7735 30.784 90.1655 30.4C89.5895 29.984 89.3015 29.44 89.3015 28.768C89.3015 27.552 89.8775 26.576 91.0295 25.84C92.1815 25.072 93.2695 24.688 94.2935 24.688C95.3495 24.688 96.1655 24.896 96.7415 25.312C97.3495 25.728 97.6535 26.304 97.6535 27.04ZM110.557 22.192C112.125 22.192 113.613 22.688 115.021 23.68C118.893 26.4 120.829 32.384 120.829 41.632C120.829 46.944 119.741 51.28 117.565 54.64C118.077 55.152 118.589 55.424 119.101 55.456C120.029 55.584 120.493 55.984 120.493 56.656C120.493 57.808 119.805 58.8 118.429 59.632C117.085 60.496 115.837 60.928 114.685 60.928C114.141 60.928 113.773 60.864 113.581 60.736C113.421 60.64 113.309 60.576 113.245 60.544C113.213 60.544 113.069 60.4 112.813 60.112C112.557 59.824 112.285 59.424 111.997 58.912C111.261 59.104 110.493 59.2 109.693 59.2C108.061 59.2 106.605 58.8 105.325 58C104.077 57.232 103.069 56.256 102.301 55.072C101.565 53.888 100.957 52.528 100.477 50.992C99.6769 48.4 99.2769 45.856 99.2769 43.36C99.2769 40.832 99.4529 38.512 99.8049 36.4C100.157 34.288 100.717 32.112 101.485 29.872C102.253 27.632 103.421 25.792 104.989 24.352C106.557 22.912 108.413 22.192 110.557 22.192ZM111.085 28.048C110.093 28.048 109.165 28.896 108.301 30.592C107.469 32.288 106.829 34.24 106.381 36.448C105.965 38.656 105.757 40.72 105.757 42.64C105.757 47.152 106.733 49.408 108.685 49.408C109.069 49.408 109.389 49.344 109.645 49.216V48.4C109.645 47.44 109.725 46.592 109.885 45.856C110.493 43.712 111.453 42.64 112.765 42.64C112.957 42.64 113.101 42.656 113.197 42.688C113.645 40.288 113.869 37.824 113.869 35.296C113.869 30.464 112.941 28.048 111.085 28.048Z" fill="black"/>
</svg>
